<svg width="72" height="72" viewBox="0 0 72 72" fill="none" xmlns="http://www.w3.org/2000/svg">
<rect x="0.609802" y="0.562988" width="70.7708" height="70.7708" rx="10.1101" fill="#82A1EA"/>
<path d="M49.7343 28.0374C49.5994 28.018 49.4421 28.018 49.3072 28.0374C46.2056 27.9401 43.7333 25.7421 43.7333 23.0188C43.7333 20.2372 46.318 18.0002 49.532 18.0002C52.746 18.0002 55.3306 20.2567 55.3306 23.0188C55.3082 25.7421 52.8359 27.9401 49.7343 28.0374Z" stroke="white" stroke-width="4.04405" stroke-linecap="round" stroke-linejoin="round"/>
<path d="M47.418 42.1981C50.4971 42.6455 53.8909 42.1787 56.2733 40.7976C59.4423 38.9691 59.4423 35.9735 56.2733 34.1451C53.8684 32.764 50.4297 32.2971 47.3506 32.764" stroke="white" stroke-width="4.04405" stroke-linecap="round" stroke-linejoin="round"/>
<path d="M22.6929 28.0374C22.8277 28.018 22.985 28.018 23.1199 28.0374C26.2215 27.9401 28.6938 25.7421 28.6938 23.0188C28.6938 20.2372 26.1091 18.0002 22.8951 18.0002C19.6812 18.0002 17.0965 20.2567 17.0965 23.0188C17.119 25.7421 19.5913 27.9401 22.6929 28.0374Z" stroke="white" stroke-width="4.04405" stroke-linecap="round" stroke-linejoin="round"/>
<path d="M25.01 42.1981C21.9308 42.6455 18.5371 42.1787 16.1547 40.7976C12.9856 38.9691 12.9856 35.9735 16.1547 34.1451C18.5595 32.764 21.9983 32.2971 25.0774 32.764" stroke="white" stroke-width="4.04405" stroke-linecap="round" stroke-linejoin="round"/>
<path d="M36.2491 42.5677C36.1142 42.5483 35.9569 42.5483 35.822 42.5677C32.7204 42.4705 30.2481 40.2724 30.2481 37.5492C30.2481 34.7675 32.8328 32.5305 36.0468 32.5305C39.2608 32.5305 41.8454 34.787 41.8454 37.5492C41.823 40.2724 39.3507 42.4899 36.2491 42.5677Z" stroke="white" stroke-width="4.04405" stroke-linecap="round" stroke-linejoin="round"/>
<path d="M42.7908 48.6949C39.2172 46.633 33.3061 46.633 29.7101 48.6949C26.5411 50.5233 26.5411 53.5189 29.7101 55.3474C33.3061 57.4287 39.1947 57.4287 42.7908 55.3474" stroke="white" stroke-width="4.04405" stroke-linecap="round" stroke-linejoin="round"/>
</svg>
