<svg width="26" height="26" viewBox="0 0 26 26" fill="none" xmlns="http://www.w3.org/2000/svg">
<g clip-path="url(#clip0_309_200)">
<path d="M23.5625 0.609347H2.4375C1.95819 0.604469 1.49652 0.789934 1.15379 1.12505C0.81106 1.46016 0.615268 1.91755 0.609375 2.39685V23.6072C0.616334 24.0858 0.812594 24.5421 1.15521 24.8763C1.49782 25.2106 1.95888 25.3955 2.4375 25.3906H23.5625C24.0418 25.3944 24.5032 25.2083 24.8458 24.873C25.1883 24.5377 25.3842 24.0804 25.3906 23.6011V2.39075C25.3821 1.91286 25.1852 1.45765 24.8429 1.12408C24.5006 0.790503 24.0405 0.605524 23.5625 0.609347Z" fill="#0076B2"/>
<path d="M4.27785 9.89831H7.95645V21.7344H4.27785V9.89831ZM6.11817 4.00769C6.54008 4.00769 6.95252 4.13283 7.3033 4.36728C7.65409 4.60172 7.92745 4.93494 8.08882 5.32478C8.25019 5.71462 8.29231 6.14356 8.20985 6.55734C8.12739 6.97112 7.92405 7.35115 7.62557 7.64935C7.32709 7.94755 6.94687 8.15052 6.53301 8.23258C6.11915 8.31465 5.69025 8.27212 5.30056 8.11038C4.91088 7.94864 4.57792 7.67496 4.34381 7.32395C4.1097 6.97295 3.98495 6.56039 3.98535 6.13847C3.98589 5.57317 4.21083 5.0312 4.61076 4.63166C5.01068 4.23212 5.55286 4.00769 6.11817 4.00769ZM10.2639 9.89831H13.7902V11.5233H13.8389C14.3305 10.593 15.5289 9.61191 17.3185 9.61191C21.0438 9.60378 21.7344 12.0555 21.7344 15.2344V21.7344H18.0558V15.9758C18.0558 14.6047 18.0314 12.8396 16.1444 12.8396C14.2574 12.8396 13.9364 14.3346 13.9364 15.8864V21.7344H10.2639V9.89831Z" fill="white"/>
</g>
<defs>
<clipPath id="clip0_309_200">
<rect width="26" height="26" fill="white"/>
</clipPath>
</defs>
</svg>
